<svg viewBox="620 1050 1240 1754" xmlns="http://www.w3.org/2000/svg">
    <defs>
        <!-- Background gradient -->
        <radialGradient id="bgGradient" cx="50%" cy="50%" r="50%">
            <stop offset="0%" stop-color="#333333"/>
            <stop offset="100%" stop-color="#222222"/>
        </radialGradient>

        <!-- Glowing effect -->
        <filter id="glow" x="-20%" y="-20%" width="140%" height="140%">
            <feGaussianBlur in="SourceGraphic" stdDeviation="2" result="blur"/>
            <feComposite in="blur" in2="SourceGraphic" operator="over"/>
        </filter>

        <!-- Gradient for the stroke -->
        <linearGradient id="strokeGradient" x1="0%" y1="0%" x2="100%" y2="0%">
            <stop offset="0%" stop-color="#ffffff">
                <animate attributeName="stop-color" 
                         values="#ffffff;#ffd700;#ffffff" 
                         dur="3s" 
                         repeatCount="indefinite"/>
            </stop>
            <stop offset="100%" stop-color="#eeeeee">
                <animate attributeName="stop-color" 
                         values="#eeeeee;#ff8c00;#eeeeee" 
                         dur="3s" 
                         repeatCount="indefinite"/>
            </stop>
        </linearGradient>
    </defs>

    <!-- Background circle -->
    <circle cx="1240.5" cy="1900" r="750" fill="url(#bgGradient)">
        <!-- Subtle scale animation -->
        <animate attributeName="r" 
                 values="750;760;750" 
                 dur="4s" 
                 repeatCount="indefinite"/>
    </circle>

    <path id="logo-outline" 
          d="M1581.91,1433.25L987.101,1433.25C955.409,1433.03 807.192,1430.66 819.44,1601.38L819.44,2394.15L1407.29,2394.15C1477.51,2396.99 1579.11,2340.5 1581.91,2222.03L1581.91,1706.77L1285.23,1706.77L1285.23,1780.2L1499.6,1780.2L1500.73,2174.76C1501.46,2285.7 1411.49,2319.14 1366.7,2318.73L886.502,2318.73L886.502,1601.38C890.785,1517.91 961.159,1500.2 987.101,1500.99L1504.98,1501.13L1504.98,1591.64L960.417,1591.64L960.417,1659.52L1162.55,1659.52L1162.55,2274.98L1240.16,2274.98L1240.16,1659.52L1581.91,1659.52Z" 
          stroke="url(#strokeGradient)"
          stroke-width="2"
          fill="none"
          filter="url(#glow)">
        
        <!-- Drawing animation -->
        <animate attributeName="stroke-dasharray" 
                 from="0 5000" 
                 to="5000 0" 
                 dur="3s" 
                 fill="freeze"/>
        
        <!-- Continuous pulse animation -->
        <animate attributeName="stroke-width" 
                 values="2;3;2" 
                 dur="2s" 
                 repeatCount="indefinite" 
                 begin="3s"/>
    </path>

    <style>
        #logo-outline {
            transition: all 0.3s ease;
        }
        #logo-outline:hover {
            stroke-width: 4;
            filter: url(#glow) brightness(1.2);
        }
    </style>
</svg>
