<svg viewBox="620 1050 1240 1754" xmlns="http://www.w3.org/2000/svg">
    <defs>
        <!-- Background gradient -->
        <radialGradient id="bgGradient" cx="50%" cy="50%" r="50%">
            <stop offset="0%" stop-color="#333333"/>
            <stop offset="100%" stop-color="#222222"/>
        </radialGradient>

        <!-- Main path glow -->
        <filter id="glow" x="-20%" y="-20%" width="140%" height="140%">
            <feGaussianBlur in="SourceGraphic" stdDeviation="2" result="blur"/>
            <feComposite in="blur" in2="SourceGraphic" operator="over"/>
        </filter>

        <!-- Second path stronger glow -->
        <filter id="glow2" x="-20%" y="-20%" width="140%" height="140%">
            <feGaussianBlur in="SourceGraphic" stdDeviation="4" result="blur"/>
            <feComposite in="blur" in2="SourceGraphic" operator="over"/>
        </filter>

        <!-- Third path strongest glow -->
        <filter id="glow3" x="-20%" y="-20%" width="140%" height="140%">
            <feGaussianBlur in="SourceGraphic" stdDeviation="6" result="blur"/>
            <feComposite in="blur" in2="SourceGraphic" operator="over"/>
        </filter>

        <!-- Gradients for each path -->
        <linearGradient id="strokeGradient1" x1="0%" y1="0%" x2="100%" y2="0%">
            <stop offset="0%" stop-color="#ffffff">
                <animate attributeName="stop-color" values="#ffffff;#ffd700;#ffffff" dur="3s" repeatCount="indefinite"/>
            </stop>
            <stop offset="100%" stop-color="#eeeeee">
                <animate attributeName="stop-color" values="#eeeeee;#ff8c00;#eeeeee" dur="3s" repeatCount="indefinite"/>
            </stop>
        </linearGradient>

        <linearGradient id="strokeGradient2" x1="0%" y1="0%" x2="100%" y2="0%">
            <stop offset="0%" stop-color="#ffd700" />
            <stop offset="100%" stop-color="#ff8c00" />
        </linearGradient>

        <linearGradient id="strokeGradient3" x1="0%" y1="0%" x2="100%" y2="0%">
            <stop offset="0%" stop-color="#ff8c00" />
            <stop offset="100%" stop-color="#ff4500" />
        </linearGradient>
    </defs>

    <!-- Background circle -->
    <circle cx="1240.5" cy="1900" r="750" fill="url(#bgGradient)">
        <animate attributeName="r" values="750;760;750" dur="4s" repeatCount="indefinite"/>
    </circle>

    <!-- Third path (background glow) -->
    <path class="logo-path" 
          d="M1581.91,1433.25L987.101,1433.25C955.409,1433.03 807.192,1430.66 819.44,1601.38L819.44,2394.15L1407.29,2394.15C1477.51,2396.99 1579.11,2340.5 1581.91,2222.03L1581.91,1706.77L1285.23,1706.77L1285.23,1780.2L1499.6,1780.2L1500.73,2174.76C1501.46,2285.7 1411.49,2319.14 1366.7,2318.73L886.502,2318.73L886.502,1601.38C890.785,1517.91 961.159,1500.2 987.101,1500.99L1504.98,1501.13L1504.98,1591.64L960.417,1591.64L960.417,1659.52L1162.55,1659.52L1162.55,2274.98L1240.16,2274.98L1240.16,1659.52L1581.91,1659.52Z" 
          stroke="url(#strokeGradient3)"
          stroke-width="3"
          fill="none"
          filter="url(#glow3)"
          opacity="0.3">
        <animate attributeName="stroke-dasharray" from="0 5000" to="5000 0" dur="3s" fill="freeze" begin="1s"/>
    </path>

    <!-- Second path (middle glow) -->
    <path class="logo-path" 
          d="M1581.91,1433.25L987.101,1433.25C955.409,1433.03 807.192,1430.66 819.44,1601.38L819.44,2394.15L1407.29,2394.15C1477.51,2396.99 1579.11,2340.5 1581.91,2222.03L1581.91,1706.77L1285.23,1706.77L1285.23,1780.2L1499.6,1780.2L1500.73,2174.76C1501.46,2285.7 1411.49,2319.14 1366.7,2318.73L886.502,2318.73L886.502,1601.38C890.785,1517.91 961.159,1500.2 987.101,1500.99L1504.98,1501.13L1504.98,1591.64L960.417,1591.64L960.417,1659.52L1162.55,1659.52L1162.55,2274.98L1240.16,2274.98L1240.16,1659.52L1581.91,1659.52Z" 
          stroke="url(#strokeGradient2)"
          stroke-width="2.5"
          fill="none"
          filter="url(#glow2)"
          opacity="0.5">
        <animate attributeName="stroke-dasharray" from="0 5000" to="5000 0" dur="3s" fill="freeze" begin="0.5s"/>
    </path>

    <!-- Main path (front) -->
    <path class="logo-path" 
          d="M1581.91,1433.25L987.101,1433.25C955.409,1433.03 807.192,1430.66 819.44,1601.38L819.44,2394.15L1407.29,2394.15C1477.51,2396.99 1579.11,2340.5 1581.91,2222.03L1581.91,1706.77L1285.23,1706.77L1285.23,1780.2L1499.6,1780.2L1500.73,2174.76C1501.46,2285.7 1411.49,2319.14 1366.7,2318.73L886.502,2318.73L886.502,1601.38C890.785,1517.91 961.159,1500.2 987.101,1500.99L1504.98,1501.13L1504.98,1591.64L960.417,1591.64L960.417,1659.52L1162.55,1659.52L1162.55,2274.98L1240.16,2274.98L1240.16,1659.52L1581.91,1659.52Z" 
          stroke="url(#strokeGradient1)"
          stroke-width="2"
          fill="none"
          filter="url(#glow)">
        <animate attributeName="stroke-dasharray" from="0 5000" to="5000 0" dur="3s" fill="freeze"/>
        <animate attributeName="stroke-width" values="2;3;2" dur="2s" repeatCount="indefinite" begin="3s"/>
    </path>

    <style>
        .logo-path {
            transition: all 0.3s ease;
        }
        .logo-path:hover {
            stroke-width: 4;
            filter: url(#glow) brightness(1.2);
        }
    </style>
</svg>